<svg xmlns="http://www.w3.org/2000/svg" viewBox="0 0 390 844">
  <rect width="390" height="844" fill="#f5f0e5"/>
  <rect width="390" height="66" fill="#07232f"/>
  <circle cx="34" cy="33" r="16" fill="none" stroke="#68b8b0"/>
  <text x="60" y="39" font-family="Georgia" font-size="20" fill="#fff">CALIPAR</text>
  <rect y="66" width="390" height="34" fill="#d8ebe6"/>
  <text x="20" y="87" font-family="monospace" font-size="8" fill="#0b6e75">DEMO WORKSPACE — STORED IN THIS BROWSER</text>
  <text x="20" y="145" font-family="monospace" font-size="8" fill="#0b6e75">2025–26 · PROGRAM REVIEW LEAD</text>
  <text x="20" y="188" font-family="Georgia" font-size="38" fill="#102f3d">Your review horizon</text>
  <g transform="translate(20 222)">
    <rect width="170" height="126" rx="8" fill="#102f3d"/><text x="16" y="28" font-family="monospace" font-size="8" fill="#68b8b0">ACTIVE REVIEWS</text><text x="16" y="82" font-family="Georgia" font-size="42" fill="#fff">3</text>
    <rect x="180" width="170" height="126" rx="8" fill="#fffcf5"/><text x="196" y="28" font-family="monospace" font-size="8" fill="#61737a">READINESS</text><text x="196" y="82" font-family="Georgia" font-size="42" fill="#102f3d">72%</text>
    <rect y="136" width="170" height="126" rx="8" fill="#fffcf5"/><text x="16" y="164" font-family="monospace" font-size="8" fill="#61737a">ACTION PLANS</text><text x="16" y="218" font-family="Georgia" font-size="42" fill="#102f3d">3</text>
    <rect x="180" y="136" width="170" height="126" rx="8" fill="#fffcf5"/><text x="196" y="164" font-family="monospace" font-size="8" fill="#61737a">RESOURCES</text><text x="196" y="218" font-family="Georgia" font-size="33" fill="#102f3d">$74K</text>
  </g>
  <rect x="20" y="510" width="350" height="295" rx="8" fill="#fffcf5"/>
  <text x="42" y="550" font-family="monospace" font-size="8" fill="#0b6e75">CONTINUE THE WORK</text>
  <text x="42" y="584" font-family="Georgia" font-size="25" fill="#102f3d">Reviews in motion</text>
  <g stroke="#d6ddd9"><path d="M42 608h306"/><path d="M42 670h306"/><path d="M42 732h306"/></g>
  <g font-family="Georgia" font-size="14" fill="#102f3d"><text x="42" y="643">Computer Science Annual Review</text><text x="42" y="705">Biology Comprehensive Review</text><text x="42" y="767">Business Administration Review</text></g>
</svg>
